<svg width="622" height="485" viewBox="0 0 622 485" fill="none" xmlns="http://www.w3.org/2000/svg">
<rect width="622" height="485" rx="15" fill="white"/>
<path d="M314.009 380.826C353.225 380.826 385.015 375.435 385.015 368.785C385.015 362.135 353.225 356.744 314.009 356.744C274.794 356.744 243.003 362.135 243.003 368.785C243.003 375.435 274.794 380.826 314.009 380.826Z" fill="#A4A5A6"/>
<path d="M385.015 360.902H243.003V368.785H385.015V360.902Z" fill="#A4A5A6"/>
<path d="M314.009 372.943C353.225 372.943 385.015 367.552 385.015 360.902C385.015 354.252 353.225 348.861 314.009 348.861C274.794 348.861 243.003 354.252 243.003 360.902C243.003 367.552 274.794 372.943 314.009 372.943Z" fill="#D1D3D4"/>
<path d="M332.587 300.82H295.413V363.112H332.587V300.82Z" fill="#BDBEBF"/>
<path d="M332.587 300.82H295.413V363.112H332.587V300.82Z" fill="#A9AAAB"/>
<path d="M295.413 321.475L332.604 324.277V312.288H295.413V321.475Z" fill="#898A8A"/>
<path d="M460.832 152.852H168.27V316.533H460.832V152.852Z" fill="#D1D3D4"/>
<path d="M460.832 152.852H168.27V316.533H460.832V152.852Z" fill="#A4A5A6"/>
<path d="M455.654 164.265H173.448V305.1H455.654V164.265Z" fill="#A1DDFF"/>
<path d="M455.654 164.265H173.448V305.1H455.654V164.265Z" fill="#A1DDFF"/>
<path d="M183.157 305.12H285.389L433.367 164.267H332.604L183.157 305.12Z" fill="#6B93AB"/>
<path d="M333.951 305.12L455.654 167.451V164.267H449.636L316.475 305.12H333.951Z" fill="#6B93AB"/>
<path d="M173.448 231.465V256.643L296.515 164.267H262.473L173.448 231.465Z" fill="#6B93AB"/>
<path d="M218.669 305.119L272.881 236.894L332.604 294.418L441.659 174.01L460.832 196.787V152.852L427.402 164.266L322.126 262.071L249.003 215.178L199.181 305.119H218.669Z" fill="#CAD1D9"/>
<path d="M435.816 141.872L315.846 238.599L265.674 192.297L173.448 260.61V305.119H199.181L262.56 240.565L320.027 289.998L449.584 157.984L435.816 141.872Z" fill="#FF4F3B"/>
<path d="M413.372 131.258L455.723 181.631L485.795 117.338L413.372 131.258Z" fill="#FF4F3B"/>
<path d="M219.159 205.312H218.179V215.596H219.159V205.312Z" fill="white"/>
<path d="M223.83 209.977H213.491V210.951H223.83V209.977Z" fill="white"/>
<path d="M428.119 227.898H427.14V241.47H428.119V227.898Z" fill="white"/>
<path d="M434.452 234.214H420.807V235.188H434.452V234.214Z" fill="white"/>
<path d="M349.346 177.872H348.366V191.444H349.346V177.872Z" fill="white"/>
<path d="M355.678 184.171H342.033V185.145H355.678V184.171Z" fill="white"/>
<path d="M201.351 177.872H200.371V191.444H201.351V177.872Z" fill="white"/>
<path d="M207.683 184.171H194.038V185.145H207.683V184.171Z" fill="white"/>
<path d="M415.594 267.882H414.615V274.215H415.594V267.882Z" fill="white"/>
<path d="M418.271 270.562H411.903V271.537H418.271V270.562Z" fill="white"/>
<path d="M290.55 183.789H289.571V190.123H290.55V183.789Z" fill="white"/>
<path d="M293.227 186.486H286.859V187.461H293.227V186.486Z" fill="white"/>
</svg>
