<svg width="47" height="49" viewBox="0 0 47 49" fill="none" xmlns="http://www.w3.org/2000/svg">
<path d="M27.025 6.125C27.025 5.15033 26.6536 4.21558 25.9926 3.52638C25.3315 2.83719 24.4349 2.45 23.5 2.45C22.5651 2.45 21.6685 2.83719 21.0074 3.52638C20.3464 4.21558 19.975 5.15033 19.975 6.125H17.625C17.625 4.50055 18.244 2.94263 19.3457 1.79397C20.4475 0.645311 21.9419 0 23.5 0C25.0581 0 26.5525 0.645311 27.6543 1.79397C28.756 2.94263 29.375 4.50055 29.375 6.125H39.95C40.2616 6.125 40.5605 6.25406 40.7808 6.48379C41.0012 6.71353 41.125 7.02511 41.125 7.35C41.125 7.67489 41.0012 7.98647 40.7808 8.21621C40.5605 8.44594 40.2616 8.575 39.95 8.575H38.6481L35.6025 36.0885C35.4699 37.2826 34.9209 38.3843 34.0599 39.1839C33.1989 39.9834 32.0861 40.4252 30.933 40.425H16.0669C14.9139 40.4252 13.8011 39.9834 12.9401 39.1839C12.0791 38.3843 11.5301 37.2826 11.3975 36.0885L8.34955 8.575H7.05C6.77499 8.5751 6.50866 8.47462 6.29739 8.29107C6.08612 8.10752 5.9433 7.85253 5.8938 7.5705L5.875 7.35C5.875 7.02511 5.99879 6.71353 6.21915 6.48379C6.4395 6.25406 6.73837 6.125 7.05 6.125H27.025ZM36.2793 8.575H10.7183L13.731 35.8068C13.7974 36.404 14.072 36.955 14.5028 37.3548C14.9335 37.7547 15.4902 37.9754 16.0669 37.975H30.933C31.5094 37.9748 32.0655 37.7538 32.4957 37.354C32.926 36.9543 33.2003 36.4036 33.2666 35.8068L36.2793 8.575ZM19.975 14.7C20.5507 14.7 21.0325 15.0798 21.1312 15.5796L21.15 15.7731V30.7793C21.15 31.3698 20.6236 31.85 19.975 31.85C19.3992 31.85 18.9175 31.4703 18.8188 30.9705L18.8 30.7769V15.7756C18.8 15.1827 19.3264 14.7025 19.975 14.7025V14.7ZM27.025 14.7C27.6007 14.7 28.0825 15.0798 28.1812 15.5796L28.2 15.7731V30.7793C28.2 31.3698 27.6736 31.85 27.025 31.85C26.4492 31.85 25.9675 31.4703 25.8688 30.9705L25.85 30.7769V15.7756C25.85 15.1827 26.3764 14.7025 27.025 14.7025V14.7Z" fill="black"/>
</svg>
