<svg width="23" height="23" viewBox="0 0 23 23" fill="none" xmlns="http://www.w3.org/2000/svg">
<path d="M11.499 5.91406C10.0171 5.91406 8.59594 6.50273 7.54811 7.55055C6.50029 8.59838 5.91162 10.0195 5.91162 11.5014C5.91162 12.9832 6.50029 14.4044 7.54811 15.4522C8.59594 16.5001 10.0171 17.0887 11.499 17.0887C12.9808 17.0887 14.402 16.5001 15.4498 15.4522C16.4976 14.4044 17.0863 12.9832 17.0863 11.5014C17.0863 10.0195 16.4976 8.59838 15.4498 7.55055C14.402 6.50273 12.9808 5.91406 11.499 5.91406ZM11.499 15.13C10.5363 15.13 9.613 14.7476 8.93227 14.0669C8.25155 13.3861 7.86912 12.4629 7.86912 11.5002C7.86912 10.5375 8.25155 9.61423 8.93227 8.93351C9.613 8.25278 10.5363 7.87035 11.499 7.87035C12.4616 7.87035 13.3849 8.25278 14.0656 8.93351C14.7464 9.61423 15.1288 10.5375 15.1288 11.5002C15.1288 12.4629 14.7464 13.3861 14.0656 14.0669C13.3849 14.7476 12.4616 15.13 11.499 15.13Z" fill="black"/>
<path d="M17.3075 7.01093C18.0269 7.01093 18.6101 6.42774 18.6101 5.70834C18.6101 4.98895 18.0269 4.40576 17.3075 4.40576C16.5881 4.40576 16.0049 4.98895 16.0049 5.70834C16.0049 6.42774 16.5881 7.01093 17.3075 7.01093Z" fill="black"/>
<path d="M21.8107 4.38394C21.531 3.66158 21.1035 3.00558 20.5557 2.45793C20.0078 1.91029 19.3517 1.48306 18.6292 1.20361C17.7838 0.886249 16.8906 0.714647 15.9878 0.696109C14.8241 0.645359 14.4556 0.630859 11.5049 0.630859C8.55411 0.630859 8.1759 0.630859 7.02194 0.696109C6.11979 0.713699 5.22727 0.885336 4.38294 1.20361C3.66028 1.48274 3.00395 1.90984 2.45605 2.45753C1.90816 3.00522 1.4808 3.66139 1.2014 4.38394C0.883976 5.22931 0.712767 6.12254 0.695108 7.02536C0.64315 8.18778 0.627441 8.55632 0.627441 11.5083C0.627441 14.459 0.627441 14.8348 0.695108 15.9912C0.713233 16.895 0.883608 17.7868 1.2014 18.6338C1.48159 19.3561 1.90936 20.012 2.45738 20.5596C3.00541 21.1072 3.66164 21.5345 4.38415 21.8141C5.22688 22.1443 6.11977 22.3282 7.02436 22.3579C8.18798 22.4087 8.55652 22.4244 11.5073 22.4244C14.458 22.4244 14.8362 22.4244 15.9902 22.3579C16.8929 22.3395 17.7861 22.1684 18.6316 21.8516C19.3539 21.5715 20.0099 21.1439 20.5577 20.5961C21.1055 20.0483 21.533 19.3924 21.8131 18.6701C22.1309 17.8242 22.3013 16.9325 22.3194 16.0287C22.3714 14.8662 22.3871 14.4977 22.3871 11.5457C22.3871 8.59378 22.3871 8.21919 22.3194 7.06282C22.3054 6.14723 22.1333 5.24095 21.8107 4.38394ZM20.339 15.9018C20.3312 16.5981 20.2041 17.288 19.9632 17.9414C19.7817 18.4113 19.5039 18.838 19.1477 19.1941C18.7914 19.5502 18.3645 19.8277 17.8945 20.0089C17.2483 20.2487 16.5658 20.3758 15.8766 20.3847C14.7287 20.4379 14.4049 20.4512 11.4614 20.4512C8.51544 20.4512 8.21457 20.4512 7.0449 20.3847C6.35606 20.3763 5.67383 20.2491 5.02819 20.0089C4.55656 19.8288 4.12799 19.5518 3.77018 19.1956C3.41238 18.8395 3.13333 18.4122 2.95107 17.9414C2.71356 17.295 2.58653 16.6133 2.57527 15.9247C2.52332 14.7768 2.51123 14.453 2.51123 11.5095C2.51123 8.56478 2.51123 8.2639 2.57527 7.09303C2.58308 6.39705 2.71019 5.70757 2.95107 5.05457C3.31961 4.10119 4.07482 3.35082 5.02819 2.9859C5.67415 2.74682 6.35618 2.61973 7.0449 2.61011C8.19402 2.55815 8.51665 2.54365 11.4614 2.54365C14.4061 2.54365 14.7082 2.54365 15.8766 2.61011C16.5659 2.6184 17.2485 2.74553 17.8945 2.9859C18.3645 3.16748 18.7913 3.44531 19.1475 3.80156C19.5038 4.15781 19.7816 4.58461 19.9632 5.05457C20.2007 5.70096 20.3277 6.38272 20.339 7.07128C20.3909 8.2204 20.4042 8.54303 20.4042 11.4877C20.4042 14.4312 20.4042 14.7478 20.3523 15.903H20.339V15.9018Z" fill="black"/>
</svg>
